ISO-10303-21;
HEADER;
FILE_DESCRIPTION(('Open CASCADE Model'),'2;1');
FILE_NAME('Open CASCADE Shape Model','2026-09-02T13:04:58',('Author'),(
    'Open CASCADE'),'Open CASCADE STEP processor 7.9','Open CASCADE 7.9'
  ,'Unknown');
FILE_SCHEMA(('AUTOMOTIVE_DESIGN { 1 0 10303 214 1 1 1 1 }'));
ENDSEC;
DATA;
#1 = APPLICATION_PROTOCOL_DEFINITION('international standard',
  'automotive_design',2000,#2);
#2 = APPLICATION_CONTEXT(
  'core data for automotive mechanical design processes');
#3 = SHAPE_DEFINITION_REPRESENTATION(#4,#10);
#4 = PRODUCT_DEFINITION_SHAPE('','',#5);
#5 = PRODUCT_DEFINITION('design','',#6,#9);
#6 = PRODUCT_DEFINITION_FORMATION('','',#7);
#7 = PRODUCT('Open CASCADE STEP translator 7.9 19',
  'Open CASCADE STEP translator 7.9 19','',(#8));
#8 = PRODUCT_CONTEXT('',#2,'mechanical');
#9 = PRODUCT_DEFINITION_CONTEXT('part definition',#2,'design');
#10 = ADVANCED_BREP_SHAPE_REPRESENTATION('',(#11,#15),#768);
#11 = AXIS2_PLACEMENT_3D('',#12,#13,#14);
#12 = CARTESIAN_POINT('',(0.,0.,0.));
#13 = DIRECTION('',(0.,0.,1.));
#14 = DIRECTION('',(1.,0.,-0.));
#15 = MANIFOLD_SOLID_BREP('',#16);
#16 = CLOSED_SHELL('',(#17,#760,#764));
#17 = ADVANCED_FACE('',(#18),#110,.F.);
#18 = FACE_BOUND('',#19,.F.);
#19 = EDGE_LOOP('',(#20,#691,#725,#726));
#20 = ORIENTED_EDGE('',*,*,#21,.T.);
#21 = EDGE_CURVE('',#22,#24,#26,.T.);
#22 = VERTEX_POINT('',#23);
#23 = CARTESIAN_POINT('',(-27.,10.15,11.100000000005));
#24 = VERTEX_POINT('',#25);
#25 = CARTESIAN_POINT('',(-18.99999999994,10.149999999994,
    11.099985100032));
#26 = SEAM_CURVE('',#27,(#109,#684),.PCURVE_S1.);
#27 = ( BOUNDED_CURVE() B_SPLINE_CURVE(10,(#28,#29,#30,#31,#32,#33,#34,
    #35,#36,#37,#38,#39,#40,#41,#42,#43,#44,#45,#46,#47,#48,#49,#50,#51,
    #52,#53,#54,#55,#56,#57,#58,#59,#60,#61,#62,#63,#64,#65,#66,#67,#68,
    #69,#70,#71,#72,#73,#74,#75,#76,#77,#78,#79,#80,#81,#82,#83,#84,#85,
    #86,#87,#88,#89,#90,#91,#92,#93,#94,#95,#96,#97,#98,#99,#100,#101,
    #102,#103,#104,#105,#106,#107,#108),.UNSPECIFIED.,.F.,.F.) 
B_SPLINE_CURVE_WITH_KNOTS((11,10,10,10,10,10,10,10,11),(0.,
    5.587992795122,11.175985590244,16.763978385366,22.351971180488,
    27.93996397561,33.527956770732,39.115949565854,44.703942360977),
.PIECEWISE_BEZIER_KNOTS.) CURVE() GEOMETRIC_REPRESENTATION_ITEM() 
RATIONAL_B_SPLINE_CURVE((1.669078461068,1.669078461068,1.669078461068,
    1.669078461069,1.669078461068,1.669078461069,1.669078461068,
    1.669078461068,1.669078461068,1.669078461068,1.669078461068,
    1.669078461068,1.669078461068,1.669078461068,1.669078461068,
    1.669078461068,1.669078461068,1.669078461068,1.669078461068,
    1.669078461068,1.669078461068,1.669078461068,1.669078461068,
    1.669078461068,1.669078461069,1.669078461068,1.669078461069,
    1.669078461068,1.669078461068,1.669078461068,1.669078461068,
    1.669078461068,1.669078461068,1.669078461068,1.669078461069,
    1.669078461068,1.669078461069,1.669078461068,1.669078461068,
    1.669078461068,1.669078461068,1.669078461068,1.669078461069,
    1.669078461068,1.669078461069,1.669078461067,1.669078461069,
    1.669078461068,1.669078461068,1.669078461068,1.669078461068,
    1.669078461068,1.669078461068,1.669078461068,1.669078461069,
    1.669078461067,1.669078461069,1.669078461068,1.669078461068,
    1.669078461068,1.669078461068,1.669078461068,1.669078461069,
    1.669078461067,1.66907846107,1.669078461067,1.66907846107,
    1.669078461067,1.669078461069,1.669078461068,1.669078461068,
    1.669078461068,1.669078461068,1.669078461068,1.669078461069,
    1.669078461068,1.669078461069,1.669078461068,1.669078461068,
1.669078461068,1.669078461068)) REPRESENTATION_ITEM('') );
#28 = CARTESIAN_POINT('',(-27.,10.15,11.100000000005));
#29 = CARTESIAN_POINT('',(-26.89999969559,10.974671076698,11.18240737206
    ));
#30 = CARTESIAN_POINT('',(-26.80000198374,11.749122089743,
    11.768761143038));
#31 = CARTESIAN_POINT('',(-26.69999389251,12.125750032398,12.82435872517
    ));
#32 = CARTESIAN_POINT('',(-26.60001138668,11.791787234577,
    14.040299097975));
#33 = CARTESIAN_POINT('',(-26.49998608185,10.686526198908,
    14.874467676298));
#34 = CARTESIAN_POINT('',(-26.40001138536,9.303287388164,14.790823096385
    ));
#35 = CARTESIAN_POINT('',(-26.29999389405,8.353470218787,13.962891885471
    ));
#36 = CARTESIAN_POINT('',(-26.20000198285,8.082830014336,12.874705675099
    ));
#37 = CARTESIAN_POINT('',(-26.09999969583,8.403972121798,11.958102702967
    ));
#38 = CARTESIAN_POINT('',(-26.,9.0454058454,11.433273811044));
#39 = CARTESIAN_POINT('',(-25.89999969559,9.686807167586,10.908414112067
    ));
#40 = CARTESIAN_POINT('',(-25.80000078702,10.649975618607,
    10.775879012649));
#41 = CARTESIAN_POINT('',(-25.69999927771,11.657574117311,
    11.253399501081));
#42 = CARTESIAN_POINT('',(-25.59999984696,12.294438138195,
    12.355989952012));
#43 = CARTESIAN_POINT('',(-25.50000073546,12.082300149707,
    13.717092317698));
#44 = CARTESIAN_POINT('',(-25.39999984564,11.065503630537,
    14.646325677111));
#45 = CARTESIAN_POINT('',(-25.29999927926,9.795233998824,14.72586865607)
  );
#46 = CARTESIAN_POINT('',(-25.20000078614,8.839536508513,14.15035987922)
  );
#47 = CARTESIAN_POINT('',(-25.09999969583,8.417547932809,13.274672204082
    ));
#48 = CARTESIAN_POINT('',(-25.,8.5,12.45));
#49 = CARTESIAN_POINT('',(-24.89999969559,8.582407372075,11.625328923301
    ));
#50 = CARTESIAN_POINT('',(-24.80000198374,9.168761143008,10.850877910266
    ));
#51 = CARTESIAN_POINT('',(-24.69999389251,10.224358725209,
    10.474249967576));
#52 = CARTESIAN_POINT('',(-24.60001138668,11.440299097942,
    10.808212765465));
#53 = CARTESIAN_POINT('',(-24.49998608185,12.274467676312,11.91347380105
    ));
#54 = CARTESIAN_POINT('',(-24.40001138536,12.19082309639,13.296712611861
    ));
#55 = CARTESIAN_POINT('',(-24.29999389406,11.362891885459,
    14.246529781207));
#56 = CARTESIAN_POINT('',(-24.20000198285,10.274705675106,
    14.517169985663));
#57 = CARTESIAN_POINT('',(-24.09999969583,9.358102702965,14.196027878203
    ));
#58 = CARTESIAN_POINT('',(-24.,8.833273811043,13.554594154601));
#59 = CARTESIAN_POINT('',(-23.89999969559,8.308414112069,12.91319283241)
  );
#60 = CARTESIAN_POINT('',(-23.80000078702,8.175879012643,11.950024381404
    ));
#61 = CARTESIAN_POINT('',(-23.69999927771,8.65339950109,10.942425882668)
  );
#62 = CARTESIAN_POINT('',(-23.59999984696,9.755989952004,10.305561861835
    ));
#63 = CARTESIAN_POINT('',(-23.50000073547,11.117092317698,
    10.517699850263));
#64 = CARTESIAN_POINT('',(-23.39999984564,12.046325677119,
    11.534496369485));
#65 = CARTESIAN_POINT('',(-23.29999927926,12.125868656061,
    12.804766001163));
#66 = CARTESIAN_POINT('',(-23.20000078614,11.550359879224,
    13.760463491495));
#67 = CARTESIAN_POINT('',(-23.09999969583,10.674672204081,
    14.182452067186));
#68 = CARTESIAN_POINT('',(-23.,9.85,14.100000000004));
#69 = CARTESIAN_POINT('',(-22.89999969559,9.025328923301,14.017592627912
    ));
#70 = CARTESIAN_POINT('',(-22.80000198374,8.250877910275,13.431238857016
    ));
#71 = CARTESIAN_POINT('',(-22.69999389251,7.874249967551,12.375641274762
    ));
#72 = CARTESIAN_POINT('',(-22.60001138668,8.208212765507,11.159700902074
    ));
#73 = CARTESIAN_POINT('',(-22.49998608186,9.313473801005,10.325532323697
    ));
#74 = CARTESIAN_POINT('',(-22.40001138536,10.696712611891,
    10.409176903583));
#75 = CARTESIAN_POINT('',(-22.29999389406,11.646529781196,
    11.237108114568));
#76 = CARTESIAN_POINT('',(-22.20000198285,11.917169985661,12.32529432488
    ));
#77 = CARTESIAN_POINT('',(-22.09999969583,11.596027878206,
    13.241897297038));
#78 = CARTESIAN_POINT('',(-22.,10.954594154601,13.766726188958));
#79 = CARTESIAN_POINT('',(-21.89999969559,10.313192832411,14.29158588793
    ));
#80 = CARTESIAN_POINT('',(-21.80000078702,9.350024381394,14.424120987355
    ));
#81 = CARTESIAN_POINT('',(-21.69999927771,8.342425882698,13.946600498918
    ));
#82 = CARTESIAN_POINT('',(-21.59999984696,7.70556186178,12.844010047985)
  );
#83 = CARTESIAN_POINT('',(-21.50000073547,7.917699850337,11.482907682305
    ));
#84 = CARTESIAN_POINT('',(-21.39999984564,8.93449636941,10.55367432289)
  );
#85 = CARTESIAN_POINT('',(-21.29999927926,10.204766001225,
    10.474131343926));
#86 = CARTESIAN_POINT('',(-21.20000078614,11.160463491452,
    11.049640120783));
#87 = CARTESIAN_POINT('',(-21.09999969583,11.582452067212,
    11.925327795918));
#88 = CARTESIAN_POINT('',(-21.,11.49999999999,12.749999999999));
#89 = CARTESIAN_POINT('',(-20.89999969559,11.417592627956,
    13.574671076698));
#90 = CARTESIAN_POINT('',(-20.80000198374,10.831238856937,
    14.349122089748));
#91 = CARTESIAN_POINT('',(-20.69999389251,9.775641274857,14.725750032381
    ));
#92 = CARTESIAN_POINT('',(-20.60001138668,8.55970090201,14.3917872346));
#93 = CARTESIAN_POINT('',(-20.49998608185,7.725532323694,13.286526198895
    ));
#94 = CARTESIAN_POINT('',(-20.40001138536,7.809176903639,11.903287388158
    ));
#95 = CARTESIAN_POINT('',(-20.29999389405,8.637108114502,10.953470218807
    ));
#96 = CARTESIAN_POINT('',(-20.20000198285,9.725294324921,10.682830014316
    ));
#97 = CARTESIAN_POINT('',(-20.09999969583,10.641897297022,11.00397212181
    ));
#98 = CARTESIAN_POINT('',(-20.,11.166726188961,11.645405845396));
#99 = CARTESIAN_POINT('',(-19.89999969559,11.691585887919,
    12.286808657599));
#100 = CARTESIAN_POINT('',(-19.800000787,11.824120987373,13.249969231556
    ));
#101 = CARTESIAN_POINT('',(-19.69999927777,11.346600498903,
    14.257590612524));
#102 = CARTESIAN_POINT('',(-19.59999984685,10.244010047986,
    14.894406903103));
#103 = CARTESIAN_POINT('',(-19.50000073564,8.882907682328,14.6823465349)
  );
#104 = CARTESIAN_POINT('',(-19.39999984543,7.953674322849,
    13.665447968339));
#105 = CARTESIAN_POINT('',(-19.29999927946,7.874131343968,
    12.395288660129));
#106 = CARTESIAN_POINT('',(-19.20000078597,8.449640120755,
    11.439492521434));
#107 = CARTESIAN_POINT('',(-19.09999969594,9.325327795931,
    11.017576674367));
#108 = CARTESIAN_POINT('',(-18.99999999994,10.149999999994,
    11.099985100032));
#109 = PCURVE('',#110,#678);
#110 = ( BOUNDED_SURFACE() B_SPLINE_SURFACE(6,10,(
    (#111,#112,#113,#114,#115,#116,#117,#118,#119,#120,#121,#122,#123
      ,#124,#125,#126,#127,#128,#129,#130,#131,#132,#133,#134,#135,#136
      ,#137,#138,#139,#140,#141,#142,#143,#144,#145,#146,#147,#148,#149
      ,#150,#151,#152,#153,#154,#155,#156,#157,#158,#159,#160,#161,#162
      ,#163,#164,#165,#166,#167,#168,#169,#170,#171,#172,#173,#174,#175
      ,#176,#177,#178,#179,#180,#181,#182,#183,#184,#185,#186,#187,#188
      ,#189,#190,#191)
    ,(#192,#193,#194,#195,#196,#197,#198,#199,#200,#201,#202,#203,#204
      ,#205,#206,#207,#208,#209,#210,#211,#212,#213,#214,#215,#216,#217
      ,#218,#219,#220,#221,#222,#223,#224,#225,#226,#227,#228,#229,#230
      ,#231,#232,#233,#234,#235,#236,#237,#238,#239,#240,#241,#242,#243
      ,#244,#245,#246,#247,#248,#249,#250,#251,#252,#253,#254,#255,#256
      ,#257,#258,#259,#260,#261,#262,#263,#264,#265,#266,#267,#268,#269
      ,#270,#271,#272)
    ,(#273,#274,#275,#276,#277,#278,#279,#280,#281,#282,#283,#284,#285
      ,#286,#287,#288,#289,#290,#291,#292,#293,#294,#295,#296,#297,#298
      ,#299,#300,#301,#302,#303,#304,#305,#306,#307,#308,#309,#310,#311
      ,#312,#313,#314,#315,#316,#317,#318,#319,#320,#321,#322,#323,#324
      ,#325,#326,#327,#328,#329,#330,#331,#332,#333,#334,#335,#336,#337
      ,#338,#339,#340,#341,#342,#343,#344,#345,#346,#347,#348,#349,#350
      ,#351,#352,#353)
    ,(#354,#355,#356,#357,#358,#359,#360,#361,#362,#363,#364,#365,#366
      ,#367,#368,#369,#370,#371,#372,#373,#374,#375,#376,#377,#378,#379
      ,#380,#381,#382,#383,#384,#385,#386,#387,#388,#389,#390,#391,#392
      ,#393,#394,#395,#396,#397,#398,#399,#400,#401,#402,#403,#404,#405
      ,#406,#407,#408,#409,#410,#411,#412,#413,#414,#415,#416,#417,#418
      ,#419,#420,#421,#422,#423,#424,#425,#426,#427,#428,#429,#430,#431
      ,#432,#433,#434)
    ,(#435,#436,#437,#438,#439,#440,#441,#442,#443,#444,#445,#446,#447
      ,#448,#449,#450,#451,#452,#453,#454,#455,#456,#457,#458,#459,#460
      ,#461,#462,#463,#464,#465,#466,#467,#468,#469,#470,#471,#472,#473
      ,#474,#475,#476,#477,#478,#479,#480,#481,#482,#483,#484,#485,#486
      ,#487,#488,#489,#490,#491,#492,#493,#494,#495,#496,#497,#498,#499
      ,#500,#501,#502,#503,#504,#505,#506,#507,#508,#509,#510,#511,#512
      ,#513,#514,#515)
    ,(#516,#517,#518,#519,#520,#521,#522,#523,#524,#525,#526,#527,#528
      ,#529,#530,#531,#532,#533,#534,#535,#536,#537,#538,#539,#540,#541
      ,#542,#543,#544,#545,#546,#547,#548,#549,#550,#551,#552,#553,#554
      ,#555,#556,#557,#558,#559,#560,#561,#562,#563,#564,#565,#566,#567
      ,#568,#569,#570,#571,#572,#573,#574,#575,#576,#577,#578,#579,#580
      ,#581,#582,#583,#584,#585,#586,#587,#588,#589,#590,#591,#592,#593
      ,#594,#595,#596)
    ,(#597,#598,#599,#600,#601,#602,#603,#604,#605,#606,#607,#608,#609
      ,#610,#611,#612,#613,#614,#615,#616,#617,#618,#619,#620,#621,#622
      ,#623,#624,#625,#626,#627,#628,#629,#630,#631,#632,#633,#634,#635
      ,#636,#637,#638,#639,#640,#641,#642,#643,#644,#645,#646,#647,#648
      ,#649,#650,#651,#652,#653,#654,#655,#656,#657,#658,#659,#660,#661
      ,#662,#663,#664,#665,#666,#667,#668,#669,#670,#671,#672,#673,#674
      ,#675,#676,#677
)),.UNSPECIFIED.,.T.,.F.,.F.) B_SPLINE_SURFACE_WITH_KNOTS((1,6,6,1),(11,
    10,10,10,10,10,10,10,11),(-6.28318530718,0.,6.28318530718,
    12.566370614359),(0.,5.587992795122,11.175985590244,16.763978385366,
    22.351971180488,27.93996397561,33.527956770732,39.115949565854,
44.703942360977),.UNSPECIFIED.) GEOMETRIC_REPRESENTATION_ITEM() 
RATIONAL_B_SPLINE_SURFACE((
    (1.669078461068,1.669078461068,1.669078461068,1.669078461069
      ,1.669078461068,1.669078461069,1.669078461068,1.669078461068
      ,1.669078461068,1.669078461068,1.669078461068,1.669078461068
      ,1.669078461068,1.669078461068,1.669078461068,1.669078461068
      ,1.669078461068,1.669078461068,1.669078461068,1.669078461068
      ,1.669078461068,1.669078461068,1.669078461068,1.669078461068
      ,1.669078461069,1.669078461068,1.669078461069,1.669078461068
      ,1.669078461068,1.669078461068,1.669078461068,1.669078461068
      ,1.669078461068,1.669078461068,1.669078461069,1.669078461068
      ,1.669078461069,1.669078461068,1.669078461068,1.669078461068
      ,1.669078461068,1.669078461068,1.669078461069,1.669078461068
      ,1.669078461069,1.669078461067,1.669078461069,1.669078461068
      ,1.669078461068,1.669078461068,1.669078461068,1.669078461068
      ,1.669078461068,1.669078461068,1.669078461069,1.669078461067
      ,1.669078461069,1.669078461068,1.669078461068,1.669078461068
      ,1.669078461068,1.669078461068,1.669078461069,1.669078461067
      ,1.66907846107,1.669078461067,1.66907846107,1.669078461067
      ,1.669078461069,1.669078461068,1.669078461068,1.669078461068
      ,1.669078461068,1.669078461068,1.669078461069,1.669078461068
      ,1.669078461069,1.669078461068,1.669078461068,1.669078461068
      ,1.669078461068)
    ,(1.03672962321,1.03672962321,1.03672962321,1.03672962321
      ,1.036729623209,1.03672962321,1.036729623209,1.03672962321
      ,1.03672962321,1.03672962321,1.03672962321,1.03672962321
      ,1.03672962321,1.036729623209,1.03672962321,1.036729623209
      ,1.03672962321,1.036729623209,1.03672962321,1.03672962321
      ,1.03672962321,1.03672962321,1.03672962321,1.036729623209
      ,1.03672962321,1.036729623209,1.03672962321,1.036729623209
      ,1.03672962321,1.03672962321,1.03672962321,1.03672962321
      ,1.03672962321,1.03672962321,1.03672962321,1.036729623209
      ,1.03672962321,1.03672962321,1.03672962321,1.03672962321
      ,1.03672962321,1.03672962321,1.03672962321,1.036729623209
      ,1.03672962321,1.036729623209,1.03672962321,1.036729623209
      ,1.03672962321,1.03672962321,1.03672962321,1.03672962321
      ,1.03672962321,1.036729623209,1.03672962321,1.036729623209
      ,1.03672962321,1.036729623209,1.03672962321,1.03672962321
      ,1.03672962321,1.03672962321,1.03672962321,1.036729623209
      ,1.03672962321,1.036729623209,1.03672962321,1.036729623209
      ,1.03672962321,1.03672962321,1.03672962321,1.03672962321
      ,1.03672962321,1.036729623209,1.03672962321,1.036729623209
      ,1.03672962321,1.036729623209,1.03672962321,1.03672962321
      ,1.03672962321)
    ,(1.038346699848,1.038346699848,1.038346699847,1.038346699848
      ,1.038346699847,1.038346699848,1.038346699847,1.038346699848
      ,1.038346699847,1.038346699848,1.038346699848,1.038346699847
      ,1.038346699848,1.038346699847,1.038346699848,1.038346699847
      ,1.038346699848,1.038346699847,1.038346699848,1.038346699847
      ,1.038346699848,1.038346699847,1.038346699848,1.038346699847
      ,1.038346699848,1.038346699847,1.038346699848,1.038346699847
      ,1.038346699848,1.038346699848,1.038346699848,1.038346699847
      ,1.038346699848,1.038346699847,1.038346699848,1.038346699847
      ,1.038346699848,1.038346699847,1.038346699848,1.038346699847
      ,1.038346699848,1.038346699847,1.038346699848,1.038346699847
      ,1.038346699848,1.038346699847,1.038346699848,1.038346699847
      ,1.038346699848,1.038346699847,1.038346699848,1.038346699847
      ,1.038346699848,1.038346699847,1.038346699848,1.038346699847
      ,1.038346699848,1.038346699847,1.038346699848,1.038346699847
      ,1.038346699848,1.038346699847,1.038346699848,1.038346699847
      ,1.038346699849,1.038346699846,1.038346699848,1.038346699847
      ,1.038346699848,1.038346699847,1.038346699848,1.038346699847
      ,1.038346699848,1.038346699847,1.038346699848,1.038346699847
      ,1.038346699848,1.038346699847,1.038346699848,1.038346699847
      ,1.038346699848)
    ,(0.853534330196,0.853534330196,0.853534330196,0.853534330196
      ,0.853534330196,0.853534330196,0.853534330196,0.853534330196
      ,0.853534330196,0.853534330196,0.853534330196,0.853534330196
      ,0.853534330196,0.853534330196,0.853534330196,0.853534330196
      ,0.853534330196,0.853534330196,0.853534330196,0.853534330196
      ,0.853534330196,0.853534330196,0.853534330196,0.853534330196
      ,0.853534330196,0.853534330196,0.853534330196,0.853534330196
      ,0.853534330196,0.853534330196,0.853534330196,0.853534330196
      ,0.853534330196,0.853534330196,0.853534330196,0.853534330196
      ,0.853534330196,0.853534330196,0.853534330196,0.853534330196
      ,0.853534330196,0.853534330196,0.853534330196,0.853534330196
      ,0.853534330197,0.853534330196,0.853534330197,0.853534330196
      ,0.853534330196,0.853534330196,0.853534330196,0.853534330196
      ,0.853534330196,0.853534330196,0.853534330196,0.853534330196
      ,0.853534330196,0.853534330196,0.853534330196,0.853534330196
      ,0.853534330196,0.853534330196,0.853534330196,0.853534330196
      ,0.853534330197,0.853534330195,0.853534330197,0.853534330196
      ,0.853534330196,0.853534330196,0.853534330196,0.853534330196
      ,0.853534330196,0.853534330196,0.853534330196,0.853534330196
      ,0.853534330196,0.853534330196,0.853534330196,0.853534330196
      ,0.853534330196)
    ,(1.038346699848,1.038346699848,1.038346699847,1.038346699848
      ,1.038346699847,1.038346699848,1.038346699847,1.038346699848
      ,1.038346699847,1.038346699848,1.038346699848,1.038346699847
      ,1.038346699848,1.038346699847,1.038346699848,1.038346699847
      ,1.038346699848,1.038346699848,1.038346699848,1.038346699848
      ,1.038346699848,1.038346699847,1.038346699848,1.038346699847
      ,1.038346699848,1.038346699847,1.038346699848,1.038346699847
      ,1.038346699848,1.038346699847,1.038346699848,1.038346699847
      ,1.038346699848,1.038346699847,1.038346699848,1.038346699847
      ,1.038346699848,1.038346699847,1.038346699848,1.038346699847
      ,1.038346699848,1.038346699847,1.038346699848,1.038346699847
      ,1.038346699848,1.038346699847,1.038346699848,1.038346699847
      ,1.038346699848,1.038346699847,1.038346699848,1.038346699847
      ,1.038346699848,1.038346699847,1.038346699848,1.038346699847
      ,1.038346699848,1.038346699847,1.038346699848,1.038346699847
      ,1.038346699848,1.038346699847,1.038346699848,1.038346699847
      ,1.038346699849,1.038346699846,1.038346699848,1.038346699847
      ,1.038346699848,1.038346699847,1.038346699848,1.038346699847
      ,1.038346699848,1.038346699847,1.038346699848,1.038346699847
      ,1.038346699848,1.038346699847,1.038346699848,1.038346699847
      ,1.038346699848)
    ,(1.03672962321,1.03672962321,1.03672962321,1.03672962321
      ,1.036729623209,1.03672962321,1.036729623209,1.03672962321
      ,1.03672962321,1.03672962321,1.03672962321,1.03672962321
      ,1.03672962321,1.036729623209,1.03672962321,1.036729623209
      ,1.03672962321,1.036729623209,1.03672962321,1.03672962321
      ,1.03672962321,1.03672962321,1.03672962321,1.036729623209
      ,1.03672962321,1.036729623209,1.03672962321,1.036729623209
      ,1.03672962321,1.03672962321,1.03672962321,1.03672962321
      ,1.03672962321,1.03672962321,1.03672962321,1.03672962321
      ,1.03672962321,1.03672962321,1.03672962321,1.03672962321
      ,1.03672962321,1.03672962321,1.03672962321,1.036729623209
      ,1.03672962321,1.036729623209,1.03672962321,1.036729623209
      ,1.03672962321,1.03672962321,1.03672962321,1.03672962321
      ,1.03672962321,1.036729623209,1.03672962321,1.036729623209
      ,1.03672962321,1.036729623209,1.03672962321,1.03672962321
      ,1.03672962321,1.03672962321,1.03672962321,1.036729623209
      ,1.03672962321,1.036729623209,1.03672962321,1.036729623209
      ,1.03672962321,1.03672962321,1.03672962321,1.03672962321
      ,1.03672962321,1.036729623209,1.03672962321,1.036729623209
      ,1.03672962321,1.036729623209,1.03672962321,1.03672962321
      ,1.03672962321)
    ,(1.669078461068,1.669078461068,1.669078461068,1.669078461069
      ,1.669078461068,1.669078461069,1.669078461068,1.669078461068
      ,1.669078461068,1.669078461068,1.669078461068,1.669078461068
      ,1.669078461068,1.669078461068,1.669078461068,1.669078461068
      ,1.669078461068,1.669078461068,1.669078461068,1.669078461068
      ,1.669078461068,1.669078461068,1.669078461068,1.669078461068
      ,1.669078461069,1.669078461068,1.669078461069,1.669078461068
      ,1.669078461068,1.669078461068,1.669078461068,1.669078461068
      ,1.669078461068,1.669078461068,1.669078461069,1.669078461068
      ,1.669078461069,1.669078461068,1.669078461068,1.669078461068
      ,1.669078461068,1.669078461068,1.669078461069,1.669078461068
      ,1.669078461069,1.669078461067,1.669078461069,1.669078461068
      ,1.669078461068,1.669078461068,1.669078461068,1.669078461068
      ,1.669078461068,1.669078461068,1.669078461069,1.669078461067
      ,1.669078461069,1.669078461068,1.669078461068,1.669078461068
      ,1.669078461068,1.669078461068,1.669078461069,1.669078461067
      ,1.66907846107,1.669078461067,1.66907846107,1.669078461067
      ,1.669078461069,1.669078461068,1.669078461068,1.669078461068
      ,1.669078461068,1.669078461068,1.669078461069,1.669078461068
      ,1.669078461069,1.669078461068,1.669078461068,1.669078461068
,1.669078461068))) REPRESENTATION_ITEM('') SURFACE() );
#111 = CARTESIAN_POINT('',(-27.,10.15,11.100000000005));
#112 = CARTESIAN_POINT('',(-26.89999969559,10.974671076698,
    11.18240737206));
#113 = CARTESIAN_POINT('',(-26.80000198374,11.749122089743,
    11.768761143038));
#114 = CARTESIAN_POINT('',(-26.69999389251,12.125750032398,
    12.82435872517));
#115 = CARTESIAN_POINT('',(-26.60001138668,11.791787234577,
    14.040299097975));
#116 = CARTESIAN_POINT('',(-26.49998608185,10.686526198908,
    14.874467676298));
#117 = CARTESIAN_POINT('',(-26.40001138536,9.303287388164,
    14.790823096385));
#118 = CARTESIAN_POINT('',(-26.29999389405,8.353470218787,
    13.962891885471));
#119 = CARTESIAN_POINT('',(-26.20000198285,8.082830014336,
    12.874705675099));
#120 = CARTESIAN_POINT('',(-26.09999969583,8.403972121798,
    11.958102702967));
#121 = CARTESIAN_POINT('',(-26.,9.0454058454,11.433273811044));
#122 = CARTESIAN_POINT('',(-25.89999969559,9.686807167586,
    10.908414112067));
#123 = CARTESIAN_POINT('',(-25.80000078702,10.649975618607,
    10.775879012649));
#124 = CARTESIAN_POINT('',(-25.69999927771,11.657574117311,
    11.253399501081));
#125 = CARTESIAN_POINT('',(-25.59999984696,12.294438138195,
    12.355989952012));
#126 = CARTESIAN_POINT('',(-25.50000073546,12.082300149707,
    13.717092317698));
#127 = CARTESIAN_POINT('',(-25.39999984564,11.065503630537,
    14.646325677111));
#128 = CARTESIAN_POINT('',(-25.29999927926,9.795233998824,14.72586865607
    ));
#129 = CARTESIAN_POINT('',(-25.20000078614,8.839536508513,14.15035987922
    ));
#130 = CARTESIAN_POINT('',(-25.09999969583,8.417547932809,
    13.274672204082));
#131 = CARTESIAN_POINT('',(-25.,8.5,12.45));
#132 = CARTESIAN_POINT('',(-24.89999969559,8.582407372075,
    11.625328923301));
#133 = CARTESIAN_POINT('',(-24.80000198374,9.168761143008,
    10.850877910266));
#134 = CARTESIAN_POINT('',(-24.69999389251,10.224358725209,
    10.474249967576));
#135 = CARTESIAN_POINT('',(-24.60001138668,11.440299097942,
    10.808212765465));
#136 = CARTESIAN_POINT('',(-24.49998608185,12.274467676312,
    11.91347380105));
#137 = CARTESIAN_POINT('',(-24.40001138536,12.19082309639,
    13.296712611861));
#138 = CARTESIAN_POINT('',(-24.29999389406,11.362891885459,
    14.246529781207));
#139 = CARTESIAN_POINT('',(-24.20000198285,10.274705675106,
    14.517169985663));
#140 = CARTESIAN_POINT('',(-24.09999969583,9.358102702965,
    14.196027878203));
#141 = CARTESIAN_POINT('',(-24.,8.833273811043,13.554594154601));
#142 = CARTESIAN_POINT('',(-23.89999969559,8.308414112069,12.91319283241
    ));
#143 = CARTESIAN_POINT('',(-23.80000078702,8.175879012643,
    11.950024381404));
#144 = CARTESIAN_POINT('',(-23.69999927771,8.65339950109,10.942425882668
    ));
#145 = CARTESIAN_POINT('',(-23.59999984696,9.755989952004,
    10.305561861835));
#146 = CARTESIAN_POINT('',(-23.50000073547,11.117092317698,
    10.517699850263));
#147 = CARTESIAN_POINT('',(-23.39999984564,12.046325677119,
    11.534496369485));
#148 = CARTESIAN_POINT('',(-23.29999927926,12.125868656061,
    12.804766001163));
#149 = CARTESIAN_POINT('',(-23.20000078614,11.550359879224,
    13.760463491495));
#150 = CARTESIAN_POINT('',(-23.09999969583,10.674672204081,
    14.182452067186));
#151 = CARTESIAN_POINT('',(-23.,9.85,14.100000000004));
#152 = CARTESIAN_POINT('',(-22.89999969559,9.025328923301,
    14.017592627912));
#153 = CARTESIAN_POINT('',(-22.80000198374,8.250877910275,
    13.431238857016));
#154 = CARTESIAN_POINT('',(-22.69999389251,7.874249967551,
    12.375641274762));
#155 = CARTESIAN_POINT('',(-22.60001138668,8.208212765507,
    11.159700902074));
#156 = CARTESIAN_POINT('',(-22.49998608186,9.313473801005,
    10.325532323697));
#157 = CARTESIAN_POINT('',(-22.40001138536,10.696712611891,
    10.409176903583));
#158 = CARTESIAN_POINT('',(-22.29999389406,11.646529781196,
    11.237108114568));
#159 = CARTESIAN_POINT('',(-22.20000198285,11.917169985661,
    12.32529432488));
#160 = CARTESIAN_POINT('',(-22.09999969583,11.596027878206,
    13.241897297038));
#161 = CARTESIAN_POINT('',(-22.,10.954594154601,13.766726188958));
#162 = CARTESIAN_POINT('',(-21.89999969559,10.313192832411,
    14.29158588793));
#163 = CARTESIAN_POINT('',(-21.80000078702,9.350024381394,
    14.424120987355));
#164 = CARTESIAN_POINT('',(-21.69999927771,8.342425882698,
    13.946600498918));
#165 = CARTESIAN_POINT('',(-21.59999984696,7.70556186178,12.844010047985
    ));
#166 = CARTESIAN_POINT('',(-21.50000073547,7.917699850337,
    11.482907682305));
#167 = CARTESIAN_POINT('',(-21.39999984564,8.93449636941,10.55367432289)
  );
#168 = CARTESIAN_POINT('',(-21.29999927926,10.204766001225,
    10.474131343926));
#169 = CARTESIAN_POINT('',(-21.20000078614,11.160463491452,
    11.049640120783));
#170 = CARTESIAN_POINT('',(-21.09999969583,11.582452067212,
    11.925327795918));
#171 = CARTESIAN_POINT('',(-21.,11.49999999999,12.749999999999));
#172 = CARTESIAN_POINT('',(-20.89999969559,11.417592627956,
    13.574671076698));
#173 = CARTESIAN_POINT('',(-20.80000198374,10.831238856937,
    14.349122089748));
#174 = CARTESIAN_POINT('',(-20.69999389251,9.775641274857,
    14.725750032381));
#175 = CARTESIAN_POINT('',(-20.60001138668,8.55970090201,14.3917872346)
  );
#176 = CARTESIAN_POINT('',(-20.49998608185,7.725532323694,
    13.286526198895));
#177 = CARTESIAN_POINT('',(-20.40001138536,7.809176903639,
    11.903287388158));
#178 = CARTESIAN_POINT('',(-20.29999389405,8.637108114502,
    10.953470218807));
#179 = CARTESIAN_POINT('',(-20.20000198285,9.725294324921,
    10.682830014316));
#180 = CARTESIAN_POINT('',(-20.09999969583,10.641897297022,
    11.00397212181));
#181 = CARTESIAN_POINT('',(-20.,11.166726188961,11.645405845396));
#182 = CARTESIAN_POINT('',(-19.89999969559,11.691585887919,
    12.286808657599));
#183 = CARTESIAN_POINT('',(-19.800000787,11.824120987373,13.249969231556
    ));
#184 = CARTESIAN_POINT('',(-19.69999927777,11.346600498903,
    14.257590612524));
#185 = CARTESIAN_POINT('',(-19.59999984685,10.244010047986,
    14.894406903103));
#186 = CARTESIAN_POINT('',(-19.50000073564,8.882907682328,14.6823465349)
  );
#187 = CARTESIAN_POINT('',(-19.39999984543,7.953674322849,
    13.665447968339));
#188 = CARTESIAN_POINT('',(-19.29999927946,7.874131343968,
    12.395288660129));
#189 = CARTESIAN_POINT('',(-19.20000078597,8.449640120755,
    11.439492521434));
#190 = CARTESIAN_POINT('',(-19.09999969594,9.325327795931,
    11.017576674367));
#191 = CARTESIAN_POINT('',(-18.99999999994,10.149999999994,
    11.099985100032));
#192 = CARTESIAN_POINT('',(-26.75076853866,10.15,11.100000000004));
#193 = CARTESIAN_POINT('',(-26.65076823425,10.974670701028,
    11.18241418433));
#194 = CARTESIAN_POINT('',(-26.55077052244,11.749122670592,
    11.768744811043));
#195 = CARTESIAN_POINT('',(-26.45076243103,12.125741460719,
    12.824386710467));
#196 = CARTESIAN_POINT('',(-26.35077992567,11.791802083395,
    14.040270046474));
#197 = CARTESIAN_POINT('',(-26.25075462003,10.686501548378,
    14.874482045962));
#198 = CARTESIAN_POINT('',(-26.15077992451,9.303314149656,14.79082167533
    ));
#199 = CARTESIAN_POINT('',(-26.05076243239,8.353450976578,13.96288311338
    ));
#200 = CARTESIAN_POINT('',(-25.95077052166,8.082840427589,
    12.874711616297));
#201 = CARTESIAN_POINT('',(-25.85076823446,8.403971565323,
    11.958101431216));
#202 = CARTESIAN_POINT('',(-25.75076853866,9.0454058454,11.433273811044)
  );
#203 = CARTESIAN_POINT('',(-25.65076823425,9.68681171895,10.908419194708
    ));
#204 = CARTESIAN_POINT('',(-25.55076932568,10.64996336442,
    10.775869747201));
#205 = CARTESIAN_POINT('',(-25.45076781644,11.657592868817,
    11.253413228944));
#206 = CARTESIAN_POINT('',(-25.35076838551,12.294417329654,
    12.35598488513));
#207 = CARTESIAN_POINT('',(-25.2507692742,12.082306550803,
    13.717086924595));
#208 = CARTESIAN_POINT('',(-25.15076838436,11.065510783204,
    14.64633172437));
#209 = CARTESIAN_POINT('',(-25.0507678178,9.795219213729,14.725863937742
    ));
#210 = CARTESIAN_POINT('',(-24.9507693249,8.839546956412,14.150359410737
    ));
#211 = CARTESIAN_POINT('',(-24.85076823447,8.417546640057,
    13.274671698305));
#212 = CARTESIAN_POINT('',(-24.75076853866,8.5,12.45));
#213 = CARTESIAN_POINT('',(-24.65076823425,8.582414184343,
    11.625329298971));
#214 = CARTESIAN_POINT('',(-24.55077052244,9.168744811017,
    10.850877329416));
#215 = CARTESIAN_POINT('',(-24.45076243103,10.224386710501,
    10.474258539258));
#216 = CARTESIAN_POINT('',(-24.35077992567,11.440270046445,
    10.808197916642));
#217 = CARTESIAN_POINT('',(-24.25075462004,12.274482045974,
    11.913498451585));
#218 = CARTESIAN_POINT('',(-24.15077992451,12.190821675334,
    13.296685850365));
#219 = CARTESIAN_POINT('',(-24.05076243239,11.36288311337,
    14.246549023417));
#220 = CARTESIAN_POINT('',(-23.95077052166,10.274711616304,
    14.517159572409));
#221 = CARTESIAN_POINT('',(-23.85076823446,9.358101431214,
    14.196028434678));
#222 = CARTESIAN_POINT('',(-23.75076853866,8.833273811043,
    13.554594154601));
#223 = CARTESIAN_POINT('',(-23.65076823425,8.30841919471,12.913188281047
    ));
#224 = CARTESIAN_POINT('',(-23.55076932568,8.175869747195,11.95003663559
    ));
#225 = CARTESIAN_POINT('',(-23.45076781644,8.653413228952,
    10.942407131164));
#226 = CARTESIAN_POINT('',(-23.35076838552,9.755984885124,
    10.305582670372));
#227 = CARTESIAN_POINT('',(-23.2507692742,11.117086924593,
    10.517693449171));
#228 = CARTESIAN_POINT('',(-23.15076838436,12.046331724379,
    11.534489216816));
#229 = CARTESIAN_POINT('',(-23.0507678178,12.125863937733,12.80478078626
    ));
#230 = CARTESIAN_POINT('',(-22.9507693249,11.550359410741,
    13.760453043595));
#231 = CARTESIAN_POINT('',(-22.85076823447,10.674671698305,
    14.182453359938));
#232 = CARTESIAN_POINT('',(-22.75076853866,9.85,14.100000000004));
#233 = CARTESIAN_POINT('',(-22.65076823425,9.025329298971,
    14.017585815645));
#234 = CARTESIAN_POINT('',(-22.55077052244,8.250877329423,
    13.431255189005));
#235 = CARTESIAN_POINT('',(-22.45076243103,7.874258539236,
    12.375613289474));
#236 = CARTESIAN_POINT('',(-22.35077992567,8.208197916679,
    11.159729953569));
#237 = CARTESIAN_POINT('',(-22.25075462004,9.313498451545,
    10.325517954033));
#238 = CARTESIAN_POINT('',(-22.15077992451,10.696685850392,
    10.409178324643));
#239 = CARTESIAN_POINT('',(-22.05076243239,11.646549023408,
    11.237116886653));
#240 = CARTESIAN_POINT('',(-21.95077052166,11.917159572408,
    12.325288383684));
#241 = CARTESIAN_POINT('',(-21.85076823447,11.59602843468,
    13.241898568788));
#242 = CARTESIAN_POINT('',(-21.75076853866,10.954594154601,
    13.766726188958));
#243 = CARTESIAN_POINT('',(-21.65076823425,10.313188281048,
    14.291580805289));
#244 = CARTESIAN_POINT('',(-21.55076932568,9.350036635581,
    14.424130252802));
#245 = CARTESIAN_POINT('',(-21.45076781644,8.34240713119,13.946586771055
    ));
#246 = CARTESIAN_POINT('',(-21.35076838552,7.705582670325,
    12.844015114867));
#247 = CARTESIAN_POINT('',(-21.2507692742,7.917693449235,11.482913075409
    ));
#248 = CARTESIAN_POINT('',(-21.15076838436,8.93448921675,10.55366827563)
  );
#249 = CARTESIAN_POINT('',(-21.05076781779,10.204780786314,
    10.474136062255));
#250 = CARTESIAN_POINT('',(-20.9507693249,11.160453043558,
    11.049640589265));
#251 = CARTESIAN_POINT('',(-20.85076823446,11.582453359961,
    11.925328301694));
#252 = CARTESIAN_POINT('',(-20.75076853866,11.499999999991,
    12.749999999999));
#253 = CARTESIAN_POINT('',(-20.65076823425,11.417585815683,
    13.574670701028));
#254 = CARTESIAN_POINT('',(-20.55077052244,10.831255188935,
    14.349122670597));
#255 = CARTESIAN_POINT('',(-20.45076243104,9.775613289557,
    14.725741460703));
#256 = CARTESIAN_POINT('',(-20.35077992567,8.559729953513,
    14.391802083416));
#257 = CARTESIAN_POINT('',(-20.25075462004,7.725517954032,
    13.286501548365));
#258 = CARTESIAN_POINT('',(-20.15077992451,7.809178324691,
    11.903314149652));
#259 = CARTESIAN_POINT('',(-20.05076243239,8.637116886596,
    10.953450976595));
#260 = CARTESIAN_POINT('',(-19.95077052166,9.725288383721,
    10.682840427571));
#261 = CARTESIAN_POINT('',(-19.85076823446,10.641898568774,
    11.003971565333));
#262 = CARTESIAN_POINT('',(-19.75076853866,11.16672618896,
    11.645405845396));
#263 = CARTESIAN_POINT('',(-19.65076823426,11.691580805279,
    12.286813024957));
#264 = CARTESIAN_POINT('',(-19.55076932566,11.824130252818,
    13.249957766123));
#265 = CARTESIAN_POINT('',(-19.45076781649,11.346586771042,
    14.257607326993));
#266 = CARTESIAN_POINT('',(-19.35076838542,10.244015114867,
    14.894389951866));
#267 = CARTESIAN_POINT('',(-19.25076927435,8.882913075429,
    14.682347207767));
#268 = CARTESIAN_POINT('',(-19.15076838418,7.953668275593,
    13.665461994877));
#269 = CARTESIAN_POINT('',(-19.05076781797,7.874136062293,
    12.395267124765));
#270 = CARTESIAN_POINT('',(-18.95076932476,8.44964058924,11.439508401412
    ));
#271 = CARTESIAN_POINT('',(-18.85076823456,9.325328301706,
    11.017571832245));
#272 = CARTESIAN_POINT('',(-18.75076853861,10.149999999994,
    11.099986940068));
#273 = CARTESIAN_POINT('',(-26.71498314251,9.841817771418,
    11.100000000004));
#274 = CARTESIAN_POINT('',(-26.61498346351,10.666488438015,
    11.012992930927));
#275 = CARTESIAN_POINT('',(-26.51498105001,11.54442588675,
    11.429808495718));
#276 = CARTESIAN_POINT('',(-26.41498958528,12.12816515749,
    12.387487006271));
#277 = CARTESIAN_POINT('',(-26.31497112969,12.048344760848,
    13.646380904305));
#278 = CARTESIAN_POINT('',(-26.21499782726,11.135147054234,
    14.688648213535));
#279 = CARTESIAN_POINT('',(-26.11497112858,9.763237643509,
    14.887936926964));
#280 = CARTESIAN_POINT('',(-26.01498958658,8.664101472,14.270105499032)
  );
#281 = CARTESIAN_POINT('',(-25.91498104927,8.177761656833,
    13.259116741876));
#282 = CARTESIAN_POINT('',(-25.81498346372,8.30585404301,12.295819079043
    ));
#283 = CARTESIAN_POINT('',(-25.71498314251,8.827488101728,
    11.651191554716));
#284 = CARTESIAN_POINT('',(-25.61498346351,9.349095033774,
    11.006538045567));
#285 = CARTESIAN_POINT('',(-25.5149823127,10.26563509172,10.680758842007
    ));
#286 = CARTESIAN_POINT('',(-25.4149839032,11.350019235814,10.94361617279
    ));
#287 = CARTESIAN_POINT('',(-25.31498330558,12.198054502846,
    11.894235492341));
#288 = CARTESIAN_POINT('',(-25.21498236581,12.267182734224,
    13.270759288237));
#289 = CARTESIAN_POINT('',(-25.11498330447,11.460152447286,
    14.387962913594));
#290 = CARTESIAN_POINT('',(-25.0149839045,10.231768615957,14.72429139788
    ));
#291 = CARTESIAN_POINT('',(-24.91498231195,9.178560250506,
    14.354866214701));
#292 = CARTESIAN_POINT('',(-24.81498346372,8.586969513581,
    13.582853702591));
#293 = CARTESIAN_POINT('',(-24.71498314251,8.5,12.758182228582));
#294 = CARTESIAN_POINT('',(-24.61498346351,8.41299293094,11.933511561984
    ));
#295 = CARTESIAN_POINT('',(-24.51498105002,8.829808495693,
    11.055574113257));
#296 = CARTESIAN_POINT('',(-24.41498958528,9.787487006306,
    10.471834842487));
#297 = CARTESIAN_POINT('',(-24.31497112969,11.046380904274,
    10.551655239188));
#298 = CARTESIAN_POINT('',(-24.21499782726,12.08864821355,
    11.464852945731));
#299 = CARTESIAN_POINT('',(-24.11497112858,12.287936926966,
    12.836762356511));
#300 = CARTESIAN_POINT('',(-24.01498958658,11.670105499024,
    13.935898527995));
#301 = CARTESIAN_POINT('',(-23.91498104927,10.659116741882,
    14.422238343166));
#302 = CARTESIAN_POINT('',(-23.81498346372,9.695819079042,
    14.294145956991));
#303 = CARTESIAN_POINT('',(-23.71498314251,9.051191554715,
    13.772511898273));
#304 = CARTESIAN_POINT('',(-23.61498346351,8.40653804557,13.250904966223
    ));
#305 = CARTESIAN_POINT('',(-23.5149823127,8.080758842002,12.334364908289
    ));
#306 = CARTESIAN_POINT('',(-23.4149839032,8.343616172797,11.249980764168
    ));
#307 = CARTESIAN_POINT('',(-23.31498330558,9.294235492335,
    10.401945497179));
#308 = CARTESIAN_POINT('',(-23.21498236581,10.670759288237,
    10.332817265751));
#309 = CARTESIAN_POINT('',(-23.11498330447,11.787962913601,
    11.139847552731));
#310 = CARTESIAN_POINT('',(-23.0149839045,12.124291397872,
    12.368231384032));
#311 = CARTESIAN_POINT('',(-22.91498231195,11.754866214705,13.4214397495
    ));
#312 = CARTESIAN_POINT('',(-22.81498346372,10.982853702591,
    14.013030486414));
#313 = CARTESIAN_POINT('',(-22.71498314251,10.158182228582,
    14.100000000004));
#314 = CARTESIAN_POINT('',(-22.61498346351,9.333511561984,
    14.187007069049));
#315 = CARTESIAN_POINT('',(-22.51498105002,8.455574113264,
    13.770191504328));
#316 = CARTESIAN_POINT('',(-22.41498958528,7.871834842467,
    12.812512993671));
#317 = CARTESIAN_POINT('',(-22.31497112969,7.951655239223,
    11.553619095738));
#318 = CARTESIAN_POINT('',(-22.21499782726,8.864852945694,
    10.511351786459));
#319 = CARTESIAN_POINT('',(-22.11497112858,10.236762356537,
    10.312063073011));
#320 = CARTESIAN_POINT('',(-22.01498958658,11.335898527987,
    10.929894500998));
#321 = CARTESIAN_POINT('',(-21.91498104927,11.822238343164,
    11.940883258107));
#322 = CARTESIAN_POINT('',(-21.81498346372,11.694145956993,
    12.904180920961));
#323 = CARTESIAN_POINT('',(-21.71498314251,11.172511898273,
    13.548808445286));
#324 = CARTESIAN_POINT('',(-21.61498346351,10.650904966224,
    14.19346195443));
#325 = CARTESIAN_POINT('',(-21.5149823127,9.73436490828,14.519241157996)
  );
#326 = CARTESIAN_POINT('',(-21.4149839032,8.649980764193,14.25638382721)
  );
#327 = CARTESIAN_POINT('',(-21.31498330558,7.801945497133,
    13.305764507655));
#328 = CARTESIAN_POINT('',(-21.21498236581,7.732817265813,
    11.929240711766));
#329 = CARTESIAN_POINT('',(-21.11498330447,8.539847552669,
    10.812037086407));
#330 = CARTESIAN_POINT('',(-21.0149839045,9.768231384084,10.475708602117
    ));
#331 = CARTESIAN_POINT('',(-20.91498231195,10.821439749464,
    10.845133785301));
#332 = CARTESIAN_POINT('',(-20.81498346372,11.413030486437,
    11.617146297409));
#333 = CARTESIAN_POINT('',(-20.71498314251,11.499999999992,
    12.441817771417));
#334 = CARTESIAN_POINT('',(-20.61498346351,11.587007069086,
    13.266488438015));
#335 = CARTESIAN_POINT('',(-20.51498105001,11.17019150426,
    14.144425886755));
#336 = CARTESIAN_POINT('',(-20.41498958529,10.212512993752,
    14.728165157476));
#337 = CARTESIAN_POINT('',(-20.31497112969,8.953619095683,
    14.648344760867));
#338 = CARTESIAN_POINT('',(-20.21499782726,7.911351786458,
    13.735147054223));
#339 = CARTESIAN_POINT('',(-20.11497112858,7.712063073057,
    12.363237643504));
#340 = CARTESIAN_POINT('',(-20.01498958658,8.329894500944,
    11.264101472016));
#341 = CARTESIAN_POINT('',(-19.91498104927,9.340883258141,
    10.777761656816));
#342 = CARTESIAN_POINT('',(-19.81498346372,10.304180920948,
    10.90585404302));
#343 = CARTESIAN_POINT('',(-19.71498314251,10.948808445289,
    11.427488101724));
#344 = CARTESIAN_POINT('',(-19.61498346352,11.593461954421,
    11.949096285771));
#345 = CARTESIAN_POINT('',(-19.51498231268,11.919241158011,
    12.865629724943));
#346 = CARTESIAN_POINT('',(-19.41498390325,11.656383827197,
    13.950033096067));
#347 = CARTESIAN_POINT('',(-19.31498330549,10.705764507656,
    14.798028257275));
#348 = CARTESIAN_POINT('',(-19.21498236595,9.329240711785,
    14.867221709806));
#349 = CARTESIAN_POINT('',(-19.1149833043,8.212037086371,14.060105676617
    ));
#350 = CARTESIAN_POINT('',(-19.01498390467,7.875708602153,
    12.831814545617));
#351 = CARTESIAN_POINT('',(-18.91498231182,8.245133785277,
    11.778523289962));
#352 = CARTESIAN_POINT('',(-18.81498346381,9.01714629742,11.186993663938
    ));
#353 = CARTESIAN_POINT('',(-18.71498314246,9.841817771412,
    11.099987480166));
#354 = CARTESIAN_POINT('',(-27.,9.587632461848,11.100000000004));
#355 = CARTESIAN_POINT('',(-26.90000083683,10.412303574147,
    10.873247549018));
#356 = CARTESIAN_POINT('',(-26.79999454539,11.375593499767,
    11.150278165073));
#357 = CARTESIAN_POINT('',(-26.70001679438,12.130175013439,
    12.027101622092));
#358 = CARTESIAN_POINT('',(-26.59996868684,12.259919597773,
    13.321542139142));
#359 = CARTESIAN_POINT('',(-26.50003827711,11.505216037815,
    14.535356379626));
#360 = CARTESIAN_POINT('',(-26.39996868556,10.142543705025,
    14.968038310821));
#361 = CARTESIAN_POINT('',(-26.30001679587,8.92034686472,14.523510211173
    ));
#362 = CARTESIAN_POINT('',(-26.19999454453,8.256038500176,
    13.576162359959));
#363 = CARTESIAN_POINT('',(-26.10000083707,8.22492849299,12.57436648223)
  );
#364 = CARTESIAN_POINT('',(-26.,8.647751945654,11.83092771079));
#365 = CARTESIAN_POINT('',(-25.90000083683,9.07054428567,11.087458979296
    ));
#366 = CARTESIAN_POINT('',(-25.79999783666,9.948660828092,
    10.602324107489));
#367 = CARTESIAN_POINT('',(-25.70000198369,11.096312224616,
    10.688081646533));
#368 = CARTESIAN_POINT('',(-25.60000042403,12.118601764645,
    11.513396070699));
#369 = CARTESIAN_POINT('',(-25.49999797592,12.419658496896,
    12.902639973227));
#370 = CARTESIAN_POINT('',(-25.40000042275,11.785639520757,
    14.174855530974));
#371 = CARTESIAN_POINT('',(-25.30000198519,10.591848416162,
    14.723000338884));
#372 = CARTESIAN_POINT('',(-25.1999978358,9.458161498173,14.523541766565
    ));
#373 = CARTESIAN_POINT('',(-25.10000083707,8.726709266068,
    13.837039465457));
#374 = CARTESIAN_POINT('',(-25.,8.5,13.012367538151));
#375 = CARTESIAN_POINT('',(-24.90000083683,8.273247549033,
    12.187696425853));
#376 = CARTESIAN_POINT('',(-24.79999454539,8.550278165043,
    11.224406500241));
#377 = CARTESIAN_POINT('',(-24.70001679438,9.427101622133,
    10.469824986535));
#378 = CARTESIAN_POINT('',(-24.59996868684,10.721542139104,
    10.340080402268));
#379 = CARTESIAN_POINT('',(-24.5000382771,11.935356379646,
    11.094783962144));
#380 = CARTESIAN_POINT('',(-24.39996868557,12.368038310821,12.457456295)
  );
#381 = CARTESIAN_POINT('',(-24.30001679587,11.923510211165,
    13.679653135273));
#382 = CARTESIAN_POINT('',(-24.19999454454,10.976162359965,
    14.343961499823));
#383 = CARTESIAN_POINT('',(-24.10000083707,9.97436648223,14.375071507011
    ));
#384 = CARTESIAN_POINT('',(-24.,9.230927710789,13.952248054347));
#385 = CARTESIAN_POINT('',(-23.90000083683,8.487458979299,
    13.529455714326));
#386 = CARTESIAN_POINT('',(-23.79999783666,8.002324107483,
    12.651339171919));
#387 = CARTESIAN_POINT('',(-23.70000198369,8.088081646541,
    11.503687775363));
#388 = CARTESIAN_POINT('',(-23.60000042403,8.913396070692,
    10.481398235384));
#389 = CARTESIAN_POINT('',(-23.49999797592,10.302639973227,
    10.180341503074));
#390 = CARTESIAN_POINT('',(-23.40000042275,11.574855530982,
    10.814360479264));
#391 = CARTESIAN_POINT('',(-23.30000198519,12.123000338876,
    12.008151583826));
#392 = CARTESIAN_POINT('',(-23.1999978358,11.923541766569,
    13.141838501834));
#393 = CARTESIAN_POINT('',(-23.10000083707,11.237039465457,
    13.873290733927));
#394 = CARTESIAN_POINT('',(-23.,10.412367538151,14.100000000004));
#395 = CARTESIAN_POINT('',(-22.90000083683,9.587696425852,
    14.326752450955));
#396 = CARTESIAN_POINT('',(-22.7999945454,8.624406500249,14.04972183498)
  );
#397 = CARTESIAN_POINT('',(-22.70001679437,7.869824986512,13.17289837784
    ));
#398 = CARTESIAN_POINT('',(-22.59996868685,7.740080402308,
    11.878457860909));
#399 = CARTESIAN_POINT('',(-22.5000382771,8.494783962101,10.664643620366
    ));
#400 = CARTESIAN_POINT('',(-22.39996868557,9.857456295028,
    10.231961689151));
#401 = CARTESIAN_POINT('',(-22.30001679587,11.079653135264,
    10.676489788862));
#402 = CARTESIAN_POINT('',(-22.19999454454,11.743961499821,
    11.623837640021));
#403 = CARTESIAN_POINT('',(-22.10000083707,11.775071507013,
    12.625633517774));
#404 = CARTESIAN_POINT('',(-22.,11.352248054347,13.369072289212));
#405 = CARTESIAN_POINT('',(-21.90000083683,10.929455714328,14.1125410207
    ));
#406 = CARTESIAN_POINT('',(-21.79999783666,10.051339171909,
    14.597675892514));
#407 = CARTESIAN_POINT('',(-21.70000198369,8.903687775392,
    14.511918353467));
#408 = CARTESIAN_POINT('',(-21.60000042403,7.881398235331,
    13.686603929298));
#409 = CARTESIAN_POINT('',(-21.49999797592,7.580341503146,
    12.297360026776));
#410 = CARTESIAN_POINT('',(-21.40000042275,8.214360479191,
    11.025144469028));
#411 = CARTESIAN_POINT('',(-21.30000198519,9.408151583886,
    10.476999661112));
#412 = CARTESIAN_POINT('',(-21.1999978358,10.541838501792,
    10.676458233438));
#413 = CARTESIAN_POINT('',(-21.10000083707,11.273290733952,
    11.362960534542));
#414 = CARTESIAN_POINT('',(-21.,11.49999999999,12.187632461848));
#415 = CARTESIAN_POINT('',(-20.90000083683,11.726752450997,
    13.012303574147));
#416 = CARTESIAN_POINT('',(-20.79999454539,11.449721834902,
    13.975593499773));
#417 = CARTESIAN_POINT('',(-20.70001679438,10.572898377935,
    14.730175013423));
#418 = CARTESIAN_POINT('',(-20.59996868683,9.278457860843,
    14.859919597794));
#419 = CARTESIAN_POINT('',(-20.50003827711,8.064643620367,
    14.105216037803));
#420 = CARTESIAN_POINT('',(-20.39996868556,7.631961689203,
    12.742543705019));
#421 = CARTESIAN_POINT('',(-20.30001679587,8.0764897888,11.52034686474)
  );
#422 = CARTESIAN_POINT('',(-20.19999454453,9.023837640061,
    10.856038500157));
#423 = CARTESIAN_POINT('',(-20.10000083707,10.025633517758,
    10.824928493002));
#424 = CARTESIAN_POINT('',(-20.,10.769072289215,11.24775194565));
#425 = CARTESIAN_POINT('',(-19.90000083684,11.512541020689,
    11.670545725337));
#426 = CARTESIAN_POINT('',(-19.79999783664,11.997675892532,
    12.548654656856));
#427 = CARTESIAN_POINT('',(-19.70000198375,11.911918353452,
    13.696328162468));
#428 = CARTESIAN_POINT('',(-19.60000042392,11.086603929298,
    14.718571584965));
#429 = CARTESIAN_POINT('',(-19.49999797609,9.697360026798,
    15.019703314768));
#430 = CARTESIAN_POINT('',(-19.40000042255,8.425144468987,
    14.385585739345));
#431 = CARTESIAN_POINT('',(-19.30000198538,7.876999661153,
    13.191901230499));
#432 = CARTESIAN_POINT('',(-19.19999783564,8.07645823341,12.058118997387
    ));
#433 = CARTESIAN_POINT('',(-19.10000083717,8.762960534556,
    11.326737036469));
#434 = CARTESIAN_POINT('',(-18.99999999994,9.587632461843,
    11.099985603492));
#435 = CARTESIAN_POINT('',(-27.28501685748,9.841817771417,
    11.100000000005));
#436 = CARTESIAN_POINT('',(-27.18501717848,10.666489297234,
    11.012977350134));
#437 = CARTESIAN_POINT('',(-27.08501476491,11.544424558252,
    11.429845849701));
#438 = CARTESIAN_POINT('',(-26.98502330058,12.128184762342,
    12.387422999254));
#439 = CARTESIAN_POINT('',(-26.88500484392,12.048310799136,
    13.646447349909));
#440 = CARTESIAN_POINT('',(-26.78503154334,11.135203434086,
    14.688615347729));
#441 = CARTESIAN_POINT('',(-26.68500484243,9.763176435535,
    14.887940177153));
#442 = CARTESIAN_POINT('',(-26.58502330231,8.664145482125,
    14.270125562259));
#443 = CARTESIAN_POINT('',(-26.48501476391,8.177737839995,13.25910315337
    ));
#444 = CARTESIAN_POINT('',(-26.38501717876,8.30585531576,12.295821987748
    ));
#445 = CARTESIAN_POINT('',(-26.28501685748,8.827488101729,
    11.651191554716));
#446 = CARTESIAN_POINT('',(-26.18501717848,9.34908462405,11.006526420724
    ));
#447 = CARTESIAN_POINT('',(-26.0850160277,10.265663119079,
    10.680780033624));
#448 = CARTESIAN_POINT('',(-25.98501761802,11.349976348007,
    10.943584774887));
#449 = CARTESIAN_POINT('',(-25.88501702081,12.198102095433,
    11.894247081141));
#450 = CARTESIAN_POINT('',(-25.78501608061,12.267168093855,
    13.270771623161));
#451 = CARTESIAN_POINT('',(-25.68501701933,11.460136087951,
    14.387949082506));
#452 = CARTESIAN_POINT('',(-25.58501761976,10.231802431924,
    14.724302189481));
#453 = CARTESIAN_POINT('',(-25.4850160267,9.178536354428,14.354867286198
    ));
#454 = CARTESIAN_POINT('',(-25.38501717876,8.586972470319,
    13.582854859386));
#455 = CARTESIAN_POINT('',(-25.28501685748,8.5,12.758182228582));
#456 = CARTESIAN_POINT('',(-25.18501717848,8.412977350151,
    11.933510702765));
#457 = CARTESIAN_POINT('',(-25.08501476491,8.829845849667,
    11.055575441758));
#458 = CARTESIAN_POINT('',(-24.98502330057,9.7874229993,10.471815237628)
  );
#459 = CARTESIAN_POINT('',(-24.88500484392,11.046447349868,
    10.551689200911));
#460 = CARTESIAN_POINT('',(-24.78503154333,12.088615347748,
    11.464796565866));
#461 = CARTESIAN_POINT('',(-24.68500484243,12.287940177156,
    12.836823564493));
#462 = CARTESIAN_POINT('',(-24.58502330231,11.670125562247,
    13.935854517867));
#463 = CARTESIAN_POINT('',(-24.48501476391,10.659103153377,
    14.422262160004));
#464 = CARTESIAN_POINT('',(-24.38501717876,9.695821987747,
    14.294144684241));
#465 = CARTESIAN_POINT('',(-24.28501685748,9.051191554715,
    13.772511898272));
#466 = CARTESIAN_POINT('',(-24.18501717848,8.406526420727,
    13.250915375946));
#467 = CARTESIAN_POINT('',(-24.0850160277,8.080780033618,12.334336880933
    ));
#468 = CARTESIAN_POINT('',(-23.98501761802,8.343584774897,
    11.250023651969));
#469 = CARTESIAN_POINT('',(-23.88501702081,9.294247081133,
    10.401897904601));
#470 = CARTESIAN_POINT('',(-23.78501608061,10.670771623161,
    10.332831906111));
#471 = CARTESIAN_POINT('',(-23.68501701933,11.787949082514,
    11.139863912074));
#472 = CARTESIAN_POINT('',(-23.58501761976,12.124302189471,
    12.368197568062));
#473 = CARTESIAN_POINT('',(-23.4850160267,11.754867286203,
    13.421463645581));
#474 = CARTESIAN_POINT('',(-23.38501717876,10.982854859386,
    14.013027529675));
#475 = CARTESIAN_POINT('',(-23.28501685748,10.158182228582,
    14.100000000005));
#476 = CARTESIAN_POINT('',(-23.18501717848,9.333510702764,
    14.187022649834));
#477 = CARTESIAN_POINT('',(-23.08501476491,8.455575441767,
    13.770154150361));
#478 = CARTESIAN_POINT('',(-22.98502330057,7.871815237601,
    12.812577000669));
#479 = CARTESIAN_POINT('',(-22.88500484392,7.951689200957,
    11.553552650149));
#480 = CARTESIAN_POINT('',(-22.78503154333,8.864796565817,
    10.511384652263));
#481 = CARTESIAN_POINT('',(-22.68500484243,10.236823564526,
    10.312059822812));
#482 = CARTESIAN_POINT('',(-22.58502330231,11.335854517856,
    10.929874437783));
#483 = CARTESIAN_POINT('',(-22.48501476391,11.822262160001,
    11.940896846607));
#484 = CARTESIAN_POINT('',(-22.38501717876,11.694144684244,
    12.904178012256));
#485 = CARTESIAN_POINT('',(-22.28501685748,11.172511898273,
    13.548808445286));
#486 = CARTESIAN_POINT('',(-22.18501717848,10.650915375947,
    14.193473579273));
#487 = CARTESIAN_POINT('',(-22.0850160277,9.734336880921,14.51921996638)
  );
#488 = CARTESIAN_POINT('',(-21.98501761802,8.650023652002,
    14.256415225112));
#489 = CARTESIAN_POINT('',(-21.88501702081,7.801897904539,
    13.305752918855));
#490 = CARTESIAN_POINT('',(-21.78501608061,7.732831906194,
    11.929228376842));
#491 = CARTESIAN_POINT('',(-21.68501701933,8.539863911989,
    10.812050917496));
#492 = CARTESIAN_POINT('',(-21.58501761976,9.768197568131,
    10.475697810514));
#493 = CARTESIAN_POINT('',(-21.4850160267,10.821463645532,
    10.845132713805));
#494 = CARTESIAN_POINT('',(-21.38501717876,11.413027529705,
    11.617145140613));
#495 = CARTESIAN_POINT('',(-21.28501685748,11.499999999989,
    12.441817771417));
#496 = CARTESIAN_POINT('',(-21.18501717849,11.587022649883,
    13.266489297235));
#497 = CARTESIAN_POINT('',(-21.0850147649,11.170154150271,
    14.144424558258));
#498 = CARTESIAN_POINT('',(-20.98502330058,10.212577000777,
    14.728184762323));
#499 = CARTESIAN_POINT('',(-20.88500484391,8.953552650075,
    14.648310799162));
#500 = CARTESIAN_POINT('',(-20.78503154334,7.911384652263,
    13.735203434071));
#501 = CARTESIAN_POINT('',(-20.68500484243,7.712059822874,
    12.363176435528));
#502 = CARTESIAN_POINT('',(-20.58502330231,8.329874437711,
    11.264145482148));
#503 = CARTESIAN_POINT('',(-20.48501476391,9.340896846653,
    10.777737839972));
#504 = CARTESIAN_POINT('',(-20.38501717876,10.304178012239,
    10.905855315774));
#505 = CARTESIAN_POINT('',(-20.28501685748,10.948808445289,
    11.427488101724));
#506 = CARTESIAN_POINT('',(-20.18501717849,11.59347357926,
    11.949086296898));
#507 = CARTESIAN_POINT('',(-20.08501602767,11.9192199664,12.865655948292
    ));
#508 = CARTESIAN_POINT('',(-19.98501761809,11.656415225095,
    13.949994867303));
#509 = CARTESIAN_POINT('',(-19.88501702068,10.705752918856,
    14.798067027569));
#510 = CARTESIAN_POINT('',(-19.78501608081,9.329228376868,
    14.867220170847));
#511 = CARTESIAN_POINT('',(-19.68501701909,8.212050917449,
    14.060073595598));
#512 = CARTESIAN_POINT('',(-19.58501761999,7.875697810562,
    12.831863800565));
#513 = CARTESIAN_POINT('',(-19.48501602652,8.245132713773,
    11.778486969816));
#514 = CARTESIAN_POINT('',(-19.38501717888,9.017145140629,
    11.187004738674));
#515 = CARTESIAN_POINT('',(-19.28501685742,9.841817771411,
    11.099983271698));
#516 = CARTESIAN_POINT('',(-27.24923146133,10.15,11.100000000005));
#517 = CARTESIAN_POINT('',(-27.14923115692,10.974671452368,
    11.182400559789));
#518 = CARTESIAN_POINT('',(-27.04923344504,11.749121508893,
    11.768777475033));
#519 = CARTESIAN_POINT('',(-26.94922535398,12.125758604077,
    12.824330739874));
#520 = CARTESIAN_POINT('',(-26.84924284769,11.791772385759,
    14.040328149476));
#521 = CARTESIAN_POINT('',(-26.74921754367,10.686550849438,
    14.874453306634));
#522 = CARTESIAN_POINT('',(-26.64924284621,9.303260626672,
    14.790824517441));
#523 = CARTESIAN_POINT('',(-26.54922535572,8.353489460996,13.96290065756
    ));
#524 = CARTESIAN_POINT('',(-26.44923344404,8.082819601083,
    12.874699733901));
#525 = CARTESIAN_POINT('',(-26.3492311572,8.403972678272,11.958103974718
    ));
#526 = CARTESIAN_POINT('',(-26.24923146133,9.0454058454,11.433273811045)
  );
#527 = CARTESIAN_POINT('',(-26.14923115692,9.686802616223,
    10.908409029426));
#528 = CARTESIAN_POINT('',(-26.04923224837,10.649987872794,
    10.775888278097));
#529 = CARTESIAN_POINT('',(-25.94923073898,11.657555365805,
    11.253385773218));
#530 = CARTESIAN_POINT('',(-25.84923130841,12.294458946735,
    12.355995018893));
#531 = CARTESIAN_POINT('',(-25.74923219673,12.082293748611,
    13.717097710803));
#532 = CARTESIAN_POINT('',(-25.64923130692,11.06549647787,
    14.646319629849));
#533 = CARTESIAN_POINT('',(-25.54923074072,9.79524878392,14.7258733744)
  );
#534 = CARTESIAN_POINT('',(-25.44923224737,8.839526060614,
    14.150360347702));
#535 = CARTESIAN_POINT('',(-25.3492311572,8.41754922556,13.274672709859)
  );
#536 = CARTESIAN_POINT('',(-25.24923146133,8.5,12.45));
#537 = CARTESIAN_POINT('',(-25.14923115692,8.582400559806,
    11.625328547632));
#538 = CARTESIAN_POINT('',(-25.04923344504,9.168777474999,
    10.850878491117));
#539 = CARTESIAN_POINT('',(-24.94922535398,10.224330739918,
    10.474241395894));
#540 = CARTESIAN_POINT('',(-24.84924284769,11.440328149438,
    10.808227614289));
#541 = CARTESIAN_POINT('',(-24.74921754367,12.27445330665,
    11.913449150515));
#542 = CARTESIAN_POINT('',(-24.64924284621,12.190824517446,
    13.296739373356));
#543 = CARTESIAN_POINT('',(-24.54922535572,11.362900657547,
    14.246510538996));
#544 = CARTESIAN_POINT('',(-24.44923344404,10.274699733909,
    14.517180398916));
#545 = CARTESIAN_POINT('',(-24.3492311572,9.358103974716,14.196027321729
    ));
#546 = CARTESIAN_POINT('',(-24.24923146133,8.833273811043,
    13.554594154601));
#547 = CARTESIAN_POINT('',(-24.14923115692,8.308409029429,
    12.913197383773));
#548 = CARTESIAN_POINT('',(-24.04923224837,8.17588827809,11.950012127218
    ));
#549 = CARTESIAN_POINT('',(-23.94923073898,8.653385773227,
    10.942444634171));
#550 = CARTESIAN_POINT('',(-23.84923130841,9.755995018885,
    10.305541053298));
#551 = CARTESIAN_POINT('',(-23.74923219673,11.117097710802,
    10.517706251355));
#552 = CARTESIAN_POINT('',(-23.64923130692,12.046319629859,
    11.534503522155));
#553 = CARTESIAN_POINT('',(-23.54923074072,12.125873374389,
    12.804751216066));
#554 = CARTESIAN_POINT('',(-23.44923224737,11.550360347707,
    13.760473939395));
#555 = CARTESIAN_POINT('',(-23.3492311572,10.674672709858,
    14.182450774433));
#556 = CARTESIAN_POINT('',(-23.24923146133,9.85,14.100000000005));
#557 = CARTESIAN_POINT('',(-23.14923115692,9.025328547631,
    14.017599440179));
#558 = CARTESIAN_POINT('',(-23.04923344504,8.250878491126,
    13.431222525029));
#559 = CARTESIAN_POINT('',(-22.94922535398,7.874241395866,
    12.375669260049));
#560 = CARTESIAN_POINT('',(-22.84924284769,8.208227614335,11.15967185058
    ));
#561 = CARTESIAN_POINT('',(-22.74921754367,9.313449150465,
    10.325546693359));
#562 = CARTESIAN_POINT('',(-22.6492428462,10.69673937339,10.409175482524
    ));
#563 = CARTESIAN_POINT('',(-22.54922535572,11.646510538985,
    11.237099342482));
#564 = CARTESIAN_POINT('',(-22.44923344404,11.917180398914,
    12.325300266076));
#565 = CARTESIAN_POINT('',(-22.3492311572,11.596027321731,
    13.241896025287));
#566 = CARTESIAN_POINT('',(-22.24923146133,10.954594154601,
    13.766726188958));
#567 = CARTESIAN_POINT('',(-22.14923115692,10.313197383774,
    14.291590970571));
#568 = CARTESIAN_POINT('',(-22.04923224837,9.350012127207,
    14.424111721907));
#569 = CARTESIAN_POINT('',(-21.94923073898,8.342444634205,
    13.946614226782));
#570 = CARTESIAN_POINT('',(-21.84923130841,7.705541053236,
    12.844004981103));
#571 = CARTESIAN_POINT('',(-21.74923219673,7.917706251438,
    11.482902289201));
#572 = CARTESIAN_POINT('',(-21.64923130692,8.93450352207,10.553680370151
    ));
#573 = CARTESIAN_POINT('',(-21.54923074072,10.204751216136,
    10.474126625596));
#574 = CARTESIAN_POINT('',(-21.44923224737,11.160473939346,
    11.049639652301));
#575 = CARTESIAN_POINT('',(-21.34923115719,11.582450774463,
    11.925327290141));
#576 = CARTESIAN_POINT('',(-21.24923146133,11.499999999989,
    12.749999999999));
#577 = CARTESIAN_POINT('',(-21.14923115692,11.417599440228,
    13.574671452368));
#578 = CARTESIAN_POINT('',(-21.04923344504,10.831222524939,14.3491215089
    ));
#579 = CARTESIAN_POINT('',(-20.94922535398,9.775669260157,
    14.725758604057));
#580 = CARTESIAN_POINT('',(-20.84924284769,8.559671850508,
    14.391772385786));
#581 = CARTESIAN_POINT('',(-20.74921754367,7.725546693357,
    13.286550849422));
#582 = CARTESIAN_POINT('',(-20.64924284621,7.809175482587,
    11.903260626665));
#583 = CARTESIAN_POINT('',(-20.54922535572,8.637099342409,
    10.953489461019));
#584 = CARTESIAN_POINT('',(-20.44923344404,9.725300266122,10.68281960106
    ));
#585 = CARTESIAN_POINT('',(-20.3492311572,10.641896025269,
    11.003972678286));
#586 = CARTESIAN_POINT('',(-20.24923146133,11.166726188961,
    11.645405845395));
#587 = CARTESIAN_POINT('',(-20.14923115693,11.691590970558,
    12.286804290241));
#588 = CARTESIAN_POINT('',(-20.04923224834,11.824111721927,
    13.24998069699));
#589 = CARTESIAN_POINT('',(-19.94923073905,11.346614226765,
    14.257573898055));
#590 = CARTESIAN_POINT('',(-19.84923130828,10.244004981103,
    14.894423854341));
#591 = CARTESIAN_POINT('',(-19.74923219692,8.882902289227,
    14.682345862034));
#592 = CARTESIAN_POINT('',(-19.64923130669,7.953680370104,
    13.665433941802));
#593 = CARTESIAN_POINT('',(-19.54923074095,7.874126625644,
    12.395310195491));
#594 = CARTESIAN_POINT('',(-19.44923224719,8.449639652269,
    11.439476641455));
#595 = CARTESIAN_POINT('',(-19.34923115731,9.325327290156,
    11.017581516489));
#596 = CARTESIAN_POINT('',(-19.24923146127,10.149999999993,
    11.099983259996));
#597 = CARTESIAN_POINT('',(-27.,10.15,11.100000000005));
#598 = CARTESIAN_POINT('',(-26.89999969559,10.974671076698,
    11.18240737206));
#599 = CARTESIAN_POINT('',(-26.80000198374,11.749122089743,
    11.768761143038));
#600 = CARTESIAN_POINT('',(-26.69999389251,12.125750032398,
    12.82435872517));
#601 = CARTESIAN_POINT('',(-26.60001138668,11.791787234577,
    14.040299097975));
#602 = CARTESIAN_POINT('',(-26.49998608185,10.686526198908,
    14.874467676298));
#603 = CARTESIAN_POINT('',(-26.40001138536,9.303287388164,
    14.790823096385));
#604 = CARTESIAN_POINT('',(-26.29999389405,8.353470218787,
    13.962891885471));
#605 = CARTESIAN_POINT('',(-26.20000198285,8.082830014336,
    12.874705675099));
#606 = CARTESIAN_POINT('',(-26.09999969583,8.403972121798,
    11.958102702967));
#607 = CARTESIAN_POINT('',(-26.,9.0454058454,11.433273811044));
#608 = CARTESIAN_POINT('',(-25.89999969559,9.686807167586,
    10.908414112067));
#609 = CARTESIAN_POINT('',(-25.80000078702,10.649975618607,
    10.775879012649));
#610 = CARTESIAN_POINT('',(-25.69999927771,11.657574117311,
    11.253399501081));
#611 = CARTESIAN_POINT('',(-25.59999984696,12.294438138195,
    12.355989952012));
#612 = CARTESIAN_POINT('',(-25.50000073546,12.082300149707,
    13.717092317698));
#613 = CARTESIAN_POINT('',(-25.39999984564,11.065503630537,
    14.646325677111));
#614 = CARTESIAN_POINT('',(-25.29999927926,9.795233998824,14.72586865607
    ));
#615 = CARTESIAN_POINT('',(-25.20000078614,8.839536508513,14.15035987922
    ));
#616 = CARTESIAN_POINT('',(-25.09999969583,8.417547932809,
    13.274672204082));
#617 = CARTESIAN_POINT('',(-25.,8.5,12.45));
#618 = CARTESIAN_POINT('',(-24.89999969559,8.582407372075,
    11.625328923301));
#619 = CARTESIAN_POINT('',(-24.80000198374,9.168761143008,
    10.850877910266));
#620 = CARTESIAN_POINT('',(-24.69999389251,10.224358725209,
    10.474249967576));
#621 = CARTESIAN_POINT('',(-24.60001138668,11.440299097942,
    10.808212765465));
#622 = CARTESIAN_POINT('',(-24.49998608185,12.274467676312,
    11.91347380105));
#623 = CARTESIAN_POINT('',(-24.40001138536,12.19082309639,
    13.296712611861));
#624 = CARTESIAN_POINT('',(-24.29999389406,11.362891885459,
    14.246529781207));
#625 = CARTESIAN_POINT('',(-24.20000198285,10.274705675106,
    14.517169985663));
#626 = CARTESIAN_POINT('',(-24.09999969583,9.358102702965,
    14.196027878203));
#627 = CARTESIAN_POINT('',(-24.,8.833273811043,13.554594154601));
#628 = CARTESIAN_POINT('',(-23.89999969559,8.308414112069,12.91319283241
    ));
#629 = CARTESIAN_POINT('',(-23.80000078702,8.175879012643,
    11.950024381404));
#630 = CARTESIAN_POINT('',(-23.69999927771,8.65339950109,10.942425882668
    ));
#631 = CARTESIAN_POINT('',(-23.59999984696,9.755989952004,
    10.305561861835));
#632 = CARTESIAN_POINT('',(-23.50000073547,11.117092317698,
    10.517699850263));
#633 = CARTESIAN_POINT('',(-23.39999984564,12.046325677119,
    11.534496369485));
#634 = CARTESIAN_POINT('',(-23.29999927926,12.125868656061,
    12.804766001163));
#635 = CARTESIAN_POINT('',(-23.20000078614,11.550359879224,
    13.760463491495));
#636 = CARTESIAN_POINT('',(-23.09999969583,10.674672204081,
    14.182452067186));
#637 = CARTESIAN_POINT('',(-23.,9.85,14.100000000004));
#638 = CARTESIAN_POINT('',(-22.89999969559,9.025328923301,
    14.017592627912));
#639 = CARTESIAN_POINT('',(-22.80000198374,8.250877910275,
    13.431238857016));
#640 = CARTESIAN_POINT('',(-22.69999389251,7.874249967551,
    12.375641274762));
#641 = CARTESIAN_POINT('',(-22.60001138668,8.208212765507,
    11.159700902074));
#642 = CARTESIAN_POINT('',(-22.49998608186,9.313473801005,
    10.325532323697));
#643 = CARTESIAN_POINT('',(-22.40001138536,10.696712611891,
    10.409176903583));
#644 = CARTESIAN_POINT('',(-22.29999389406,11.646529781196,
    11.237108114568));
#645 = CARTESIAN_POINT('',(-22.20000198285,11.917169985661,
    12.32529432488));
#646 = CARTESIAN_POINT('',(-22.09999969583,11.596027878206,
    13.241897297038));
#647 = CARTESIAN_POINT('',(-22.,10.954594154601,13.766726188958));
#648 = CARTESIAN_POINT('',(-21.89999969559,10.313192832411,
    14.29158588793));
#649 = CARTESIAN_POINT('',(-21.80000078702,9.350024381394,
    14.424120987355));
#650 = CARTESIAN_POINT('',(-21.69999927771,8.342425882698,
    13.946600498918));
#651 = CARTESIAN_POINT('',(-21.59999984696,7.70556186178,12.844010047985
    ));
#652 = CARTESIAN_POINT('',(-21.50000073547,7.917699850337,
    11.482907682305));
#653 = CARTESIAN_POINT('',(-21.39999984564,8.93449636941,10.55367432289)
  );
#654 = CARTESIAN_POINT('',(-21.29999927926,10.204766001225,
    10.474131343926));
#655 = CARTESIAN_POINT('',(-21.20000078614,11.160463491452,
    11.049640120783));
#656 = CARTESIAN_POINT('',(-21.09999969583,11.582452067212,
    11.925327795918));
#657 = CARTESIAN_POINT('',(-21.,11.49999999999,12.749999999999));
#658 = CARTESIAN_POINT('',(-20.89999969559,11.417592627956,
    13.574671076698));
#659 = CARTESIAN_POINT('',(-20.80000198374,10.831238856937,
    14.349122089748));
#660 = CARTESIAN_POINT('',(-20.69999389251,9.775641274857,
    14.725750032381));
#661 = CARTESIAN_POINT('',(-20.60001138668,8.55970090201,14.3917872346)
  );
#662 = CARTESIAN_POINT('',(-20.49998608185,7.725532323694,
    13.286526198895));
#663 = CARTESIAN_POINT('',(-20.40001138536,7.809176903639,
    11.903287388158));
#664 = CARTESIAN_POINT('',(-20.29999389405,8.637108114502,
    10.953470218807));
#665 = CARTESIAN_POINT('',(-20.20000198285,9.725294324921,
    10.682830014316));
#666 = CARTESIAN_POINT('',(-20.09999969583,10.641897297022,
    11.00397212181));
#667 = CARTESIAN_POINT('',(-20.,11.166726188961,11.645405845396));
#668 = CARTESIAN_POINT('',(-19.89999969559,11.691585887919,
    12.286808657599));
#669 = CARTESIAN_POINT('',(-19.800000787,11.824120987373,13.249969231556
    ));
#670 = CARTESIAN_POINT('',(-19.69999927777,11.346600498903,
    14.257590612524));
#671 = CARTESIAN_POINT('',(-19.59999984685,10.244010047986,
    14.894406903103));
#672 = CARTESIAN_POINT('',(-19.50000073564,8.882907682328,14.6823465349)
  );
#673 = CARTESIAN_POINT('',(-19.39999984543,7.953674322849,
    13.665447968339));
#674 = CARTESIAN_POINT('',(-19.29999927946,7.874131343968,
    12.395288660129));
#675 = CARTESIAN_POINT('',(-19.20000078597,8.449640120755,
    11.439492521434));
#676 = CARTESIAN_POINT('',(-19.09999969594,9.325327795931,
    11.017576674367));
#677 = CARTESIAN_POINT('',(-18.99999999994,10.149999999994,
    11.099985100032));
#678 = DEFINITIONAL_REPRESENTATION('',(#679),#683);
#679 = LINE('',#680,#681);
#680 = CARTESIAN_POINT('',(6.28318530718,0.));
#681 = VECTOR('',#682,1.);
#682 = DIRECTION('',(0.,1.));
#683 = ( GEOMETRIC_REPRESENTATION_CONTEXT(2) 
PARAMETRIC_REPRESENTATION_CONTEXT() REPRESENTATION_CONTEXT('2D SPACE',''
  ) );
#684 = PCURVE('',#110,#685);
#685 = DEFINITIONAL_REPRESENTATION('',(#686),#690);
#686 = LINE('',#687,#688);
#687 = CARTESIAN_POINT('',(0.,0.));
#688 = VECTOR('',#689,1.);
#689 = DIRECTION('',(0.,1.));
#690 = ( GEOMETRIC_REPRESENTATION_CONTEXT(2) 
PARAMETRIC_REPRESENTATION_CONTEXT() REPRESENTATION_CONTEXT('2D SPACE',''
  ) );
#691 = ORIENTED_EDGE('',*,*,#692,.F.);
#692 = EDGE_CURVE('',#24,#24,#693,.T.);
#693 = SURFACE_CURVE('',#694,(#702,#709),.PCURVE_S1.);
#694 = ( BOUNDED_CURVE() B_SPLINE_CURVE(6,(#695,#696,#697,#698,#699,#700
,#701),.UNSPECIFIED.,.T.,.F.) B_SPLINE_CURVE_WITH_KNOTS((1,6,6,1),(
    -6.28318530718,0.,6.28318530718,12.566370614359),.UNSPECIFIED.) 
CURVE() GEOMETRIC_REPRESENTATION_ITEM() RATIONAL_B_SPLINE_CURVE((
    1.669078461068,1.03672962321,1.038346699848,0.853534330196,
1.038346699848,1.03672962321,1.669078461068)) REPRESENTATION_ITEM('') );
#695 = CARTESIAN_POINT('',(-18.99999999994,10.149999999994,
    11.099985100032));
#696 = CARTESIAN_POINT('',(-18.75076853861,10.149999999994,
    11.099986940068));
#697 = CARTESIAN_POINT('',(-18.71498314246,9.841817771412,
    11.099987480166));
#698 = CARTESIAN_POINT('',(-18.99999999994,9.587632461843,
    11.099985603492));
#699 = CARTESIAN_POINT('',(-19.28501685742,9.841817771411,
    11.099983271698));
#700 = CARTESIAN_POINT('',(-19.24923146127,10.149999999993,
    11.099983259996));
#701 = CARTESIAN_POINT('',(-18.99999999994,10.149999999994,
    11.099985100032));
#702 = PCURVE('',#110,#703);
#703 = DEFINITIONAL_REPRESENTATION('',(#704),#708);
#704 = LINE('',#705,#706);
#705 = CARTESIAN_POINT('',(0.,44.703942360977));
#706 = VECTOR('',#707,1.);
#707 = DIRECTION('',(1.,0.));
#708 = ( GEOMETRIC_REPRESENTATION_CONTEXT(2) 
PARAMETRIC_REPRESENTATION_CONTEXT() REPRESENTATION_CONTEXT('2D SPACE',''
  ) );
#709 = PCURVE('',#710,#715);
#710 = PLANE('',#711);
#711 = AXIS2_PLACEMENT_3D('',#712,#713,#714);
#712 = CARTESIAN_POINT('',(-18.99999999994,10.000023763479,
    11.099985234298));
#713 = DIRECTION('',(7.382840213991E-06,-8.952499669886E-07,
    -0.999999999972));
#714 = DIRECTION('',(0.999999999973,0.,7.382840213994E-06));
#715 = DEFINITIONAL_REPRESENTATION('',(#716),#724);
#716 = ( BOUNDED_CURVE() B_SPLINE_CURVE(6,(#717,#718,#719,#720,#721,#722
,#723),.UNSPECIFIED.,.T.,.F.) B_SPLINE_CURVE_WITH_KNOTS((1,6,6,1),(
    -6.28318530718,0.,6.28318530718,12.566370614359),.UNSPECIFIED.) 
CURVE() GEOMETRIC_REPRESENTATION_ITEM() RATIONAL_B_SPLINE_CURVE((
    1.669078461068,1.03672962321,1.038346699848,0.853534330196,
1.038346699848,1.03672962321,1.669078461068)) REPRESENTATION_ITEM('') );
#717 = CARTESIAN_POINT('',(-4.654054919229E-13,-0.149976236515));
#718 = CARTESIAN_POINT('',(0.249231461335,-0.149976236516));
#719 = CARTESIAN_POINT('',(0.285016857487,0.158205992067));
#720 = CARTESIAN_POINT('',(1.286082351726E-12,0.412391301637));
#721 = CARTESIAN_POINT('',(-0.285016857486,0.158205992068));
#722 = CARTESIAN_POINT('',(-0.249231461336,-0.149976236514));
#723 = CARTESIAN_POINT('',(-4.654054919229E-13,-0.149976236515));
#724 = ( GEOMETRIC_REPRESENTATION_CONTEXT(2) 
PARAMETRIC_REPRESENTATION_CONTEXT() REPRESENTATION_CONTEXT('2D SPACE',''
  ) );
#725 = ORIENTED_EDGE('',*,*,#21,.F.);
#726 = ORIENTED_EDGE('',*,*,#727,.T.);
#727 = EDGE_CURVE('',#22,#22,#728,.T.);
#728 = SURFACE_CURVE('',#729,(#737,#744),.PCURVE_S1.);
#729 = ( BOUNDED_CURVE() B_SPLINE_CURVE(6,(#730,#731,#732,#733,#734,#735
,#736),.UNSPECIFIED.,.T.,.F.) B_SPLINE_CURVE_WITH_KNOTS((1,6,6,1),(
    -6.28318530718,0.,6.28318530718,12.566370614359),.UNSPECIFIED.) 
CURVE() GEOMETRIC_REPRESENTATION_ITEM() RATIONAL_B_SPLINE_CURVE((
    1.669078461068,1.03672962321,1.038346699848,0.853534330196,
1.038346699848,1.03672962321,1.669078461068)) REPRESENTATION_ITEM('') );
#730 = CARTESIAN_POINT('',(-27.,10.15,11.100000000005));
#731 = CARTESIAN_POINT('',(-26.75076853866,10.15,11.100000000004));
#732 = CARTESIAN_POINT('',(-26.71498314251,9.841817771418,
    11.100000000004));
#733 = CARTESIAN_POINT('',(-27.,9.587632461848,11.100000000004));
#734 = CARTESIAN_POINT('',(-27.28501685748,9.841817771417,
    11.100000000005));
#735 = CARTESIAN_POINT('',(-27.24923146133,10.15,11.100000000005));
#736 = CARTESIAN_POINT('',(-27.,10.15,11.100000000005));
#737 = PCURVE('',#110,#738);
#738 = DEFINITIONAL_REPRESENTATION('',(#739),#743);
#739 = LINE('',#740,#741);
#740 = CARTESIAN_POINT('',(0.,0.));
#741 = VECTOR('',#742,1.);
#742 = DIRECTION('',(1.,0.));
#743 = ( GEOMETRIC_REPRESENTATION_CONTEXT(2) 
PARAMETRIC_REPRESENTATION_CONTEXT() REPRESENTATION_CONTEXT('2D SPACE',''
  ) );
#744 = PCURVE('',#745,#750);
#745 = PLANE('',#746);
#746 = AXIS2_PLACEMENT_3D('',#747,#748,#749);
#747 = CARTESIAN_POINT('',(-27.,10.000023763485,11.100000000005));
#748 = DIRECTION('',(-2.277546957716E-12,1.615041607395E-13,-1.));
#749 = DIRECTION('',(1.,0.,-2.277546957716E-12));
#750 = DEFINITIONAL_REPRESENTATION('',(#751),#759);
#751 = ( BOUNDED_CURVE() B_SPLINE_CURVE(6,(#752,#753,#754,#755,#756,#757
,#758),.UNSPECIFIED.,.T.,.F.) B_SPLINE_CURVE_WITH_KNOTS((1,6,6,1),(
    -6.28318530718,0.,6.28318530718,12.566370614359),.UNSPECIFIED.) 
CURVE() GEOMETRIC_REPRESENTATION_ITEM() RATIONAL_B_SPLINE_CURVE((
    1.669078461068,1.03672962321,1.038346699848,0.853534330196,
1.038346699848,1.03672962321,1.669078461068)) REPRESENTATION_ITEM('') );
#752 = CARTESIAN_POINT('',(-2.13162820728E-14,-0.149976236515));
#753 = CARTESIAN_POINT('',(0.249231461336,-0.149976236515));
#754 = CARTESIAN_POINT('',(0.285016857487,0.158205992067));
#755 = CARTESIAN_POINT('',(5.329070518201E-14,0.412391301637));
#756 = CARTESIAN_POINT('',(-0.285016857487,0.158205992067));
#757 = CARTESIAN_POINT('',(-0.249231461336,-0.149976236515));
#758 = CARTESIAN_POINT('',(-2.13162820728E-14,-0.149976236515));
#759 = ( GEOMETRIC_REPRESENTATION_CONTEXT(2) 
PARAMETRIC_REPRESENTATION_CONTEXT() REPRESENTATION_CONTEXT('2D SPACE',''
  ) );
#760 = ADVANCED_FACE('',(#761),#745,.T.);
#761 = FACE_BOUND('',#762,.T.);
#762 = EDGE_LOOP('',(#763));
#763 = ORIENTED_EDGE('',*,*,#727,.T.);
#764 = ADVANCED_FACE('',(#765),#710,.F.);
#765 = FACE_BOUND('',#766,.F.);
#766 = EDGE_LOOP('',(#767));
#767 = ORIENTED_EDGE('',*,*,#692,.T.);
#768 = ( GEOMETRIC_REPRESENTATION_CONTEXT(3) 
GLOBAL_UNCERTAINTY_ASSIGNED_CONTEXT((#772)) GLOBAL_UNIT_ASSIGNED_CONTEXT
((#769,#770,#771)) REPRESENTATION_CONTEXT('Context #1',
  '3D Context with UNIT and UNCERTAINTY') );
#769 = ( LENGTH_UNIT() NAMED_UNIT(*) SI_UNIT(.MILLI.,.METRE.) );
#770 = ( NAMED_UNIT(*) PLANE_ANGLE_UNIT() SI_UNIT($,.RADIAN.) );
#771 = ( NAMED_UNIT(*) SI_UNIT($,.STERADIAN.) SOLID_ANGLE_UNIT() );
#772 = UNCERTAINTY_MEASURE_WITH_UNIT(LENGTH_MEASURE(2.E-05),#769,
  'distance_accuracy_value','confusion accuracy');
#773 = PRODUCT_RELATED_PRODUCT_CATEGORY('part',$,(#7));
ENDSEC;
END-ISO-10303-21;
